HIERARCHY
ROOT Hips
{
	OFFSET	0.00	0.00	0.00
	CHANNELS 6 Xposition Yposition Zposition Zrotation Xrotation Yrotation
	JOINT Spine
	{
		OFFSET	 0.00	0.01	 0.00
		CHANNELS 3 Zrotation Xrotation Yrotation
		JOINT Spine1
		{
			OFFSET	 0.00	 2.45913012437421	 0.00
			CHANNELS 3 Zrotation Xrotation Yrotation
            JOINT Neck
            {
                OFFSET	 0.00	 2.48462964506057	 0.00
                CHANNELS 3 Zrotation Xrotation Yrotation
                JOINT Head
                {
                    OFFSET	 0.00	 0.927524780924562	 0.00
                    CHANNELS 3 Zrotation Xrotation Yrotation
                    End Site 
                    {
                        OFFSET	 0.00	 1.14999962169752	 0.00
                    }
                }
            }
			JOINT LeftShoulder
			{
				OFFSET	 0.00	 2.48462964506057	 0.00
				CHANNELS 3 Zrotation Xrotation Yrotation
				JOINT LeftUpArm
				{
					OFFSET	 0.00	 1.24881979654096	 0.00
					CHANNELS 3 Zrotation Xrotation Yrotation
					JOINT LeftForeArm
					{
						OFFSET	 0.00	2.59758046908119	 0.00
						CHANNELS 3 Zrotation Xrotation Yrotation
						JOINT LeftHand
						{
							OFFSET	 0.00	2.45542024364365	 0.00
							CHANNELS 3 Zrotation Xrotation Yrotation
							JOINT LeftHandThumb 
							{
								OFFSET	 0.00	0.00	 0.00
								CHANNELS 3 Zrotation Xrotation Yrotation
								End Site
								{
									OFFSET	 0.00	0.00	1.00000003353624
								}
							}
							JOINT L_Wrist_End 
							{
								OFFSET	 0.00	0.99999967115358	 0.00
								CHANNELS 3 Zrotation Xrotation Yrotation
								End Site 
								{
									OFFSET	 0.00	 0.00	 0.00
								}
							}
						}
					}
				}
			}
			JOINT RightShoulder
			{
				OFFSET	 0.00	 2.48462964506057	 0.00
				CHANNELS 3 Zrotation Xrotation Yrotation
				JOINT RightUpArm
				{
					OFFSET	 0.00	 1.24881979654096	 0.00
					CHANNELS 3 Zrotation Xrotation Yrotation
					JOINT RightForeArm
					{
						OFFSET	 0.00	2.59758046908119	 0.00
						CHANNELS 3 Zrotation Xrotation Yrotation
						JOINT RightHand
						{
							OFFSET	 0.00	2.45542024364365	 0.00
							CHANNELS 3 Zrotation Xrotation Yrotation
							JOINT RightHandThumb 
							{
								OFFSET	 0.00	0.00	 0.00
								CHANNELS 3 Zrotation Xrotation Yrotation
								End Site
								{
									OFFSET	 0.00	0.00	1.00000003353624
								}
							}
							JOINT R_Wrist_End 
							{
								OFFSET	 0.00	0.99999967115358	 0.00
								CHANNELS 3 Zrotation Xrotation Yrotation
								End Site 
								{
									OFFSET	 0.00	 0.00	 0.00
								}
							}
						}
					}
				}
			}
		}
	}
	JOINT LeftUpLeg
	{
		OFFSET	 1.2719394002717	 0.00	 0.00
		CHANNELS 3 Zrotation Xrotation Yrotation
		JOINT LeftLowLeg
		{
			OFFSET	 0.00	-4.3429100912261	 0.00
			CHANNELS 3 Zrotation Xrotation Yrotation
			JOINT LeftFoot
			{
				OFFSET	 0.00	-4.48767017425826	 0.00
				CHANNELS 3 Zrotation Xrotation Yrotation
				JOINT LeftToeBase
                {
                    OFFSET	 0.00	0.00	 1.51507020887566
                    CHANNELS 3 Zrotation Xrotation Yrotation
                    End Site 
                    {
                        OFFSET	 0.00	0.00	 0.75000010571191
                    }
                }
			}
		}
	}
	JOINT RightUpLeg
	{
		OFFSET	 -1.2719393604653	 0.00	 0.00
		CHANNELS 3 Zrotation Xrotation Yrotation
		JOINT RightLowLeg
		{
			OFFSET	 0.00	-4.3429100912261	 0.00
			CHANNELS 3 Zrotation Xrotation Yrotation
			JOINT RightFoot
			{
				OFFSET	 0.00	-4.48767017425826	 0.00
				CHANNELS 3 Zrotation Xrotation Yrotation
				JOINT RightToeBase
                {
                    OFFSET	 0.00	0.00	 1.51507020887566
                    CHANNELS 3 Zrotation Xrotation Yrotation
                    End Site 
                    {
                        OFFSET	 0.00	0.00	 0.749999965609858
                    }
                }   
			}
		}
	}
}
MOTION 
Frames:	16 
Frame Time: 0.02 
  -0.7202059936523437 -1.664759979248047 6.890830078125 144.182 77.8569 -1591.14 -2.20661 4.35625 8.76552 1.29383 4.57242 -12.8685 -0.826682 50.8476 358.905 -71.6977 -69.261 659.622 -103.8851 0.866904 362.786 -7.57376 46.4524 -25.4535 0.0 110.949 0.0 64.4156 17.0714 17.7665 0.0 0.0 0.0 0.0 0.0 0.0 113.927704 -5.25552 -365.012 38.38 6.47561 -386.398 0.0 106.017 0.0 -15.296 0.98629 -2.59489 0.0 0.0 0.0 0.0 0.0 0.0 2.69601 -74.5403 -705.805 0.0 76.855 0.0 -89.8958 -0.95619965 -22.6547 0.0 40.8707 0.0 15.2963 -77.6017 13.3046 0.0 80.8249 0.0 21.4652 2.4889002 -2.3333 0.0 -23.80495 0.0 
  -0.7227790069580078 -1.6621600341796876 6.888809814453125 143.705 77.8909 -1590.67 -2.12565 4.35014 8.82154 1.15014 4.7269 -12.816 -3.49779 51.3659 361.422 -72.4849 -68.6349 659.107 -104.020096 0.596167 363.138 -4.37709 46.2892 -21.4551 0.0 111.83 0.0 62.5953 23.9488 22.0897 0.0 0.0 0.0 0.0 0.0 0.0 113.803 -5.18071 -365.046 38.3166 6.41328 -386.504 0.0 105.954 0.0 -15.7642 1.66403 -3.86532 0.0 0.0 0.0 0.0 0.0 0.0 2.70158 -74.4533 -705.738 0.0 76.8287 0.0 -89.9089 -0.91520023 -22.675 0.0 40.8783 0.0 15.2774 -77.5188 13.3408 0.0 80.819 0.0 21.4036 2.3654003 -2.34377 0.0 -23.775951 0.0 
  -0.7254879760742188 -1.6598699951171876 6.885670166015625 143.22 78.0181 -1590.2 -2.03946 4.3956 8.88093 1.02839 4.89929 -12.7534 -5.73782 51.8155 363.622 -73.0077 -68.1991 658.73 -104.0321 0.324052 362.891 -2.03556 46.2783 -16.0298 0.0 111.998 0.0 60.7929 30.5329 24.2206 0.0 0.0 0.0 0.0 0.0 0.0 113.6275 -5.03233 -365.08 38.2765 6.27684 -386.637 0.0 105.877 0.0 -16.0928 2.36159 -4.7985 0.0 0.0 0.0 0.0 0.0 0.0 2.76187 -74.3001 -705.663 0.0 76.8358 0.0 -89.9256 -0.86730003 -22.7378 0.0 40.8487 0.0 15.2406 -77.3541 13.3195 0.0 80.8146 0.0 21.3437 2.2466002 -2.35627 0.0 -23.7372 0.0 
  -0.7275189971923828 -1.6569099426269531 6.881500244140625 142.825 78.112 -1589.78 -2.0118 4.3044 8.9541 1.0279 5.23572 -12.6902 -7.49569 52.0823 365.391 -73.2223 -67.8896 658.541 -103.9781 0.287885 361.845 -0.768892 46.2429 -9.86597 0.0 111.449 0.0 59.0476 37.6705 26.4003 0.0 0.0 0.0 0.0 0.0 0.0 113.435104 -4.93933 -365.054 38.2436 6.25583 -386.642 0.0 105.833 0.0 -15.7574 2.89311 -5.32197 0.0 0.0 0.0 0.0 0.0 0.0 2.72764 -74.1998 -705.685 0.0 76.8449 0.0 -89.8923 -0.8292999 -22.7871 0.0 40.8281 0.0 15.1089 -77.2498 13.1894 0.0 80.8295 0.0 21.2703 2.1155996 -2.37992 0.0 -23.713741 0.0 
  -0.73010498046875 -1.6530799865722656 6.876339721679687 142.484 78.1895 -1589.42 -1.95018 4.3408 8.94957 0.876501 5.34321 -12.6987 -8.99251 52.3414 367.035 -73.3488 -67.763 658.377 -103.8985 0.35422 361.278 0.760368 45.9571 -5.09955 0.0 110.789 0.0 59.0425 42.9256 26.0134 0.0 0.0 0.0 0.0 0.0 0.0 113.2852 -4.91006 -365.216 38.1844 6.47144 -386.742 0.0 105.801 0.0 -15.2736 3.15426 -5.67456 0.0 0.0 0.0 0.0 0.0 0.0 2.76087 -74.1345 -705.614 0.0 76.8477 0.0 -89.6734 -0.91810036 -22.7819 0.0 40.9467 0.0 15.146 -77.1998 13.2424 0.0 80.8819 0.0 21.2417 2.0475998 -2.42789 0.0 -23.67495 0.0 
  -0.7320390319824219 -1.6491700744628905 6.871389770507813 142.114 78.2889 -1589.04 -1.88556 4.30827 8.91578 0.744089 5.63874 -12.7424 -10.0225 52.4836 368.222 -73.5929 -67.738 658.258 -103.8333 0.596798 360.94 2.26953 45.4776 -2.50568 0.0 109.779 0.0 59.8674 46.7182 27.7893 0.0 0.0 0.0 0.0 0.0 0.0 113.18 -4.91765 -365.19 38.0601 6.76024 -387.023 0.0 105.73 0.0 -14.8342 3.85729 -5.81419 0.0 0.0 0.0 0.0 0.0 0.0 2.7863 -74.0686 -705.585 0.0 76.8873 0.0 -89.6283 -0.88029957 -22.7666 0.0 40.9053 0.0 15.1592 -77.1412 13.279 0.0 80.9347 0.0 21.2372 2.0338001 -2.45067 0.0 -23.670021 0.0 
  -0.7332450103759766 -1.644530029296875 6.86708984375 141.644 78.3971 -1588.57 -1.86236 4.44578 8.81118 0.648125 5.67836 -12.8475 -10.9557 52.6553 369.294 -73.8591 -67.7269 658.197 -103.7637 0.871704 360.933 3.22694 44.5143 -2.21914 0.0 108.908 0.0 63.4375 48.6004 22.9272 0.0 0.0 0.0 0.0 0.0 0.0 113.1045 -4.9855 -365.107 37.8777 7.09484 -387.488 0.0 105.723 0.0 -14.6781 4.52484 -6.28138 0.0 0.0 0.0 0.0 0.0 0.0 2.81856 -74.0015 -705.566 0.0 76.952 0.0 -89.8484 -0.7166004 -22.7503 0.0 40.8256 0.0 15.1941 -77.0713 13.3631 0.0 80.9854 0.0 21.2973 2.0611 -2.45664 0.0 -23.68573 0.0 
  -0.7347840118408203 -1.6401100158691406 6.864320068359375 141.299 78.4671 -1588.26 -1.89227 4.52787 8.68036 0.644505 5.7598 -12.9832 -11.6977 52.687 370.164 -73.9717 -67.7146 658.298 -103.5865 1.03815 360.802 3.05023 43.3432 -3.67795 0.0 108.134 0.0 65.255 47.8299 20.7018 0.0 0.0 0.0 0.0 0.0 0.0 113.129 -4.97277 -364.892 37.5761 7.33695 -387.876 0.0 105.847 0.0 -14.3023 4.91186 -6.76167 0.0 0.0 0.0 0.0 0.0 0.0 3.00359 -73.9564 -705.373 0.0 76.9846 0.0 -89.7955 -0.684 -22.6758 0.0 40.8323 0.0 15.3787 -77.0148 13.5826 0.0 80.9997 0.0 21.2783 2.0937996 -2.48249 0.0 -23.68296 0.0 
  -0.7352059936523437 -1.636529998779297 6.863359985351562 141.011 78.5213 -1588.06 -1.91454 4.63505 8.57846 0.621686 5.73276 -13.0869 -12.3467 52.8203 370.928 -73.9066 -67.7192 658.436 -103.3297 0.94842 360.826 2.07993 42.5743 -6.6723 0.0 107.132 0.0 66.8528 45.7672 18.2612 0.0 0.0 0.0 0.0 0.0 0.0 113.1737 -4.90628 -364.731 37.3088 7.40839 -388.226 0.0 105.957 0.0 -14.5248 5.38119 -7.62186 0.0 0.0 0.0 0.0 0.0 0.0 3.27109 -73.8984 -705.088 0.0 76.9932 0.0 -89.8161 -0.67020035 -22.6437 0.0 40.8528 0.0 15.6399 -76.937 13.87 0.0 80.9637 0.0 21.3198 2.1167002 -2.47229 0.0 -23.66396 0.0 
  -0.7352870178222656 -1.63531005859375 6.864229736328125 140.869 78.5137 -1587.98 -1.93384 4.71533 8.50989 0.508515 5.5848 -13.1648 -12.6703 53.0695 371.36 -73.6066 -67.7958 658.762 -103.0176 0.694119 360.981 0.800425 42.2016 -9.87129 0.0 106.336 0.0 68.0696 42.5195 16.263 0.0 0.0 0.0 0.0 0.0 0.0 113.2797 -4.74505 -364.795 37.0421 7.32719 -388.217 0.0 106.047 0.0 -14.6501 5.57358 -8.10538 0.0 0.0 0.0 0.0 0.0 0.0 3.45815 -73.8741 -704.876 0.0 76.9813 0.0 -89.8116 -0.6492996 -22.6281 0.0 40.8237 0.0 15.8199 -76.8984 14.0768 0.0 80.912 0.0 21.2703 2.1123 -2.47203 0.0 -23.631699 0.0 
  -0.7346420288085938 -1.6362199401855468 6.866719970703125 140.858 78.4813 -1588.01 -1.9315 4.7466 8.49285 0.296613 5.43387 -13.1991 -12.6875 53.4033 371.52 -73.2488 -67.9805 658.98 -102.8218 0.355131 361.191 0.175373 42.282 -12.1253 0.0 105.837 0.0 68.1208 39.8687 16.5008 0.0 0.0 0.0 0.0 0.0 0.0 113.3487 -4.50572 -364.915 36.9625 6.96399 -388.083 0.0 106.035 0.0 -15.1106 5.82437 -7.84938 0.0 0.0 0.0 0.0 0.0 0.0 3.49475 -73.862 -704.817 0.0 76.9465 0.0 -89.9257 -0.6338997 -22.6525 0.0 40.8419 0.0 15.8935 -76.8791 14.1767 0.0 80.86 0.0 21.2669 2.1051998 -2.46192 0.0 -23.6511 0.0 
  -0.7342500305175781 -1.6388900756835938 6.869459838867187 140.964 78.4458 -1588.09 -1.90754 4.6901 8.53793 0.0108209 5.43009 -13.1804 -11.9894 53.6152 370.902 -72.9322 -68.2252 659.231 -102.7305 0.0489849 361.026 0.0606747 42.5563 -12.5055 0.0 105.987 0.0 67.5134 40.5259 14.0142 0.0 0.0 0.0 0.0 0.0 0.0 113.3383 -4.34127 -365.073 37.0699 6.63043 -387.895 0.0 105.929 0.0 -15.5426 5.89445 -7.60938 0.0 0.0 0.0 0.0 0.0 0.0 3.38927 -73.8614 -704.91 0.0 76.9147 0.0 -89.8907 -0.6360998 -22.6562 0.0 40.7868 0.0 15.8407 -76.88 14.1484 0.0 80.8374 0.0 21.2617 2.0798998 -2.47537 0.0 -23.678581 0.0 
  -0.7347270202636719 -1.64375 6.873309936523437 141.33 78.3971 -1588.37 -1.89297 4.63474 8.58944 -0.206539 5.29833 -13.1494 -11.2838 53.9184 370.221 -73.0621 -68.4609 659.176 -102.833496 -0.217878 360.991 0.599271 42.769 -11.0996 0.0 106.605 0.0 64.1807 42.7449 17.4418 0.0 0.0 0.0 0.0 0.0 0.0 113.2895 -4.26999 -365.227 37.2179 6.34 -387.827 0.0 105.794 0.0 -15.819 5.80531 -7.34512 0.0 0.0 0.0 0.0 0.0 0.0 3.24768 -73.891 -705.062 0.0 76.8848 0.0 -89.8207 -0.63409996 -22.6626 0.0 40.794 0.0 15.8173 -76.9034 14.1448 0.0 80.8303 0.0 21.3375 2.038 -2.5037 0.0 -23.67355 0.0 
  -0.7351380157470703 -1.6488699340820312 6.877169799804688 141.927 78.3597 -1588.9 -1.94679 4.59368 8.68043 -0.186642 5.0763 -13.0703 -10.7306 54.1893 369.607 -73.3502 -68.5819 659.003 -102.983 -0.399254 360.892 1.18302 43.0199 -8.30616 0.0 107.477 0.0 61.9322 45.0697 17.9645 0.0 0.0 0.0 0.0 0.0 0.0 113.168304 -4.34627 -365.196 37.351 6.05931 -387.909 0.0 105.696 0.0 -15.6405 5.79985 -7.25681 0.0 0.0 0.0 0.0 0.0 0.0 3.23825 -73.9532 -705.124 0.0 76.8936 0.0 -89.6422 -0.60350037 -22.6427 0.0 40.6444 0.0 15.92 -76.9263 14.2272 0.0 80.8111 0.0 21.4203 2.0024004 -2.54424 0.0 -23.68126 0.0 
  -0.7339399719238281 -1.6532000732421874 6.8804998779296875 142.567 78.3752 -1589.47 -1.95333 4.46323 8.76138 -0.0776539 5.13731 -12.9868 -10.2862 54.1922 369.095 -73.5911 -68.6212 658.769 -103.1012 -0.336547 360.734 1.88375 43.0211 -5.19223 0.0 108.651 0.0 59.6747 46.1329 22.6233 0.0 0.0 0.0 0.0 0.0 0.0 112.9969 -4.45396 -364.975 37.5277 5.93243 -388.134 0.0 105.638 0.0 -15.3884 5.88978 -7.30712 0.0 0.0 0.0 0.0 0.0 0.0 3.2185 -73.9969 -705.214 0.0 76.896 0.0 -89.6817 -0.63899994 -22.6487 0.0 40.8376 0.0 15.8911 -76.9153 14.1258 0.0 80.7833 0.0 21.4716 1.9860001 -2.57799 0.0 -23.715889 0.0 
  -0.7307080078125 -1.6565199279785157 6.882329711914062 143.185 78.3726 -1590.0 -1.91418 4.34894 8.80699 0.0122088 5.22459 -12.9303 -9.93757 54.0587 368.695 -73.9163 -68.6375 658.421 -103.2174 -0.0716776 360.76 2.68898 42.8652 -3.26217 0.0 109.531 0.0 61.9288 47.3825 19.1285 0.0 0.0 0.0 0.0 0.0 0.0 112.8542 -4.63874 -364.763 37.6417 6.00833 -388.404 0.0 105.658 0.0 -15.1775 6.10259 -6.95103 0.0 0.0 0.0 0.0 0.0 0.0 3.07173 -74.088 -705.451 0.0 76.9265 0.0 -89.7257 -0.61989975 -22.6143 0.0 40.9262 0.0 15.7837 -76.9482 13.9647 0.0 80.7837 0.0 21.5398 1.9618998 -2.58223 0.0 -23.68002 0.0 
